<svg width="36" height="15" viewBox="0 0 36 15" fill="none" xmlns="http://www.w3.org/2000/svg">
<path d="M8.26172 11.082C8.26172 12.0898 7.91016 12.8574 7.20703 13.3848C6.50977 13.9121 5.46387 14.1758 4.06934 14.1758C3.35449 14.1758 2.74512 14.126 2.24121 14.0264C1.7373 13.9326 1.26562 13.792 0.826172 13.6045V11.3896C1.32422 11.624 1.88379 11.8203 2.50488 11.9785C3.13184 12.1367 3.68262 12.2158 4.15723 12.2158C5.12988 12.2158 5.61621 11.9346 5.61621 11.3721C5.61621 11.1611 5.55176 10.9912 5.42285 10.8623C5.29395 10.7275 5.07129 10.5781 4.75488 10.4141C4.43848 10.2441 4.0166 10.0479 3.48926 9.8252C2.7334 9.50879 2.17676 9.21582 1.81934 8.94629C1.46777 8.67676 1.20996 8.36914 1.0459 8.02344C0.887695 7.67188 0.808594 7.24121 0.808594 6.73145C0.808594 5.8584 1.14551 5.18457 1.81934 4.70996C2.49902 4.22949 3.45996 3.98926 4.70215 3.98926C5.88574 3.98926 7.03711 4.24707 8.15625 4.7627L7.34766 6.69629C6.85547 6.48535 6.39551 6.3125 5.96777 6.17773C5.54004 6.04297 5.10352 5.97559 4.6582 5.97559C3.86719 5.97559 3.47168 6.18945 3.47168 6.61719C3.47168 6.85742 3.59766 7.06543 3.84961 7.24121C4.10742 7.41699 4.66699 7.67773 5.52832 8.02344C6.2959 8.33398 6.8584 8.62402 7.21582 8.89355C7.57324 9.16309 7.83691 9.47363 8.00684 9.8252C8.17676 10.1768 8.26172 10.5957 8.26172 11.082ZM12.9287 8.65625L14.0977 7.16211L16.8486 4.17383H19.8721L15.9697 8.43652L20.1094 14H17.0156L14.1855 10.0186L13.0342 10.9414V14H10.3535V0.324219H13.0342V6.42383L12.8936 8.65625H12.9287ZM26.9824 3.98926C28.1426 3.98926 29.0508 4.44336 29.707 5.35156C30.3633 6.25391 30.6914 7.49316 30.6914 9.06934C30.6914 10.6924 30.3516 11.9492 29.6719 12.8398C28.998 13.7305 28.0781 14.1758 26.9121 14.1758C25.7578 14.1758 24.8525 13.7568 24.1963 12.9189H24.0117L23.5635 14H21.5156V0.324219H24.1963V3.50586C24.1963 3.91016 24.1611 4.55762 24.0908 5.44824H24.1963C24.8232 4.47559 25.752 3.98926 26.9824 3.98926ZM26.1211 6.13379C25.459 6.13379 24.9756 6.33887 24.6709 6.74902C24.3662 7.15332 24.208 7.82422 24.1963 8.76172V9.05176C24.1963 10.1064 24.3516 10.8623 24.6621 11.3193C24.9785 11.7764 25.4766 12.0049 26.1562 12.0049C26.707 12.0049 27.1436 11.7529 27.4658 11.249C27.7939 10.7393 27.958 10.001 27.958 9.03418C27.958 8.06738 27.7939 7.34375 27.4658 6.86328C27.1377 6.37695 26.6895 6.13379 26.1211 6.13379ZM32.5283 12.7432C32.5283 12.251 32.6602 11.8789 32.9238 11.627C33.1875 11.375 33.5713 11.249 34.0752 11.249C34.5615 11.249 34.9365 11.3779 35.2002 11.6357C35.4697 11.8936 35.6045 12.2627 35.6045 12.7432C35.6045 13.2061 35.4697 13.5723 35.2002 13.8418C34.9307 14.1055 34.5557 14.2373 34.0752 14.2373C33.583 14.2373 33.2021 14.1084 32.9326 13.8506C32.6631 13.5869 32.5283 13.2178 32.5283 12.7432Z" fill="white"/>
</svg>
